<?xml version="1.0" encoding="UTF-8" standalone="no"?>
<svg
   xmlns:svg="http://www.w3.org/2000/svg"
   xmlns="http://www.w3.org/2000/svg"
   x="0px"
   y="0px"
   width="20px"
   height="20px"   
  
  >  
   <g    
     id="gflat_inheritance" 
     >
    <path
       style="fill:white;stroke:#000000;stroke-width:1px;stroke-linecap:butt;stroke-linejoin:miter;stroke-opacity:1"
       d="M 20,10 0,2 0,18 z"       
        />
    <path
       style="fill:white;stroke:#000000;stroke-width:1px;stroke-linecap:butt;stroke-linejoin:miter;stroke-opacity:1"
       d="M 12,7 12,13 1,10 z"       
        />
  </g>
  <g
     id="gvertical_inheritance">
    <path
       style="fill:white;stroke:#000000;stroke-width:1px;stroke-linecap:butt;stroke-linejoin:miter;stroke-opacity:1"
       d="M 20,10 0,2 0,18 z"
       />  
  <path
     style="fill:none;stroke:#000000;stroke-width:1px;stroke-linecap:butt;stroke-linejoin:miter;stroke-opacity:1"
     d="m 0.2542373,7.6271186 14.1525427,0"
      />
  <path
     style="fill:none;stroke:#000000;stroke-width:1px;stroke-linecap:butt;stroke-linejoin:miter;stroke-opacity:1"
     d="M 0.08474577,12.288136 14.406779,12.20339"
     />
</g>

<g
     id="ghorizontal_inheritance">
    <path
       style="fill:white;stroke:#000000;stroke-width:1px;stroke-linecap:butt;stroke-linejoin:miter;stroke-opacity:1"
       d="M 20,10 0,2 0,18 z"
        />
   <path
     style="fill:none;stroke:#000000;stroke-width:1px;stroke-linecap:butt;stroke-linejoin:miter;stroke-opacity:1"
     d="m 2.7118644,3.220339 0,13.559322"
      />
  <path
     style="fill:none;stroke:#000000;stroke-width:1px;stroke-linecap:butt;stroke-linejoin:miter;stroke-opacity:1"
     d="M 5.5,4.3220339 5.5,16.016949"
     />
  <path
     style="fill:none;stroke:#000000;stroke-width:1px;stroke-linecap:butt;stroke-linejoin:miter;stroke-opacity:1"
     d="M 8.5,5.2542373 8.5,14.915254"
     />
  <path
     style="fill:none;stroke:#000000;stroke-width:1px;stroke-linecap:butt;stroke-linejoin:miter;stroke-opacity:1"
     d="m 11.779661,6.779661 -0.169492,6.694915"
    />
  <path
     style="fill:none;stroke:#000000;stroke-width:1px;stroke-linecap:butt;stroke-linejoin:miter;stroke-opacity:1"
     d="m 14.745763,8.0508475 -0.08475,4.0677965"
      />
  </g>
  <symbol id="open-iconic-x"  width="8" height="8" viewBox="0 0 8 8">
  	<path d="M1.41 0l-1.41 1.41.72.72 1.78 1.81-1.78 1.78-.72.69 1.41 1.44.72-.72 1.81-1.81 1.78 1.81.69.72 1.44-1.44-.72-.69-1.81-1.78 1.81-1.81.72-.72-1.44-1.41-.69.72-1.78 1.78-1.81-1.78-.72-.72z" />
  </symbol>
  <!-- -->
  <symbol id="loader-1"  width="40px" height="40px" viewBox="0 0 40 40" enable-background="new 0 0 40 40">
  <path opacity="0.2" fill="#000" d="M20.201,5.169c-8.254,0-14.946,6.692-14.946,14.946c0,8.255,6.692,14.946,14.946,14.946
    s14.946-6.691,14.946-14.946C35.146,11.861,28.455,5.169,20.201,5.169z M20.201,31.749c-6.425,0-11.634-5.208-11.634-11.634
    c0-6.425,5.209-11.634,11.634-11.634c6.425,0,11.633,5.209,11.633,11.634C31.834,26.541,26.626,31.749,20.201,31.749z"/>
  <path fill="#000" d="M26.013,10.047l1.654-2.866c-2.198-1.272-4.743-2.012-7.466-2.012h0v3.312h0
    C22.32,8.481,24.301,9.057,26.013,10.047z">
    <animateTransform attributeType="xml"
      attributeName="transform"
      type="rotate"
      from="0 20 20"
      to="360 20 20"
      dur="0.5s"
      repeatCount="indefinite"/>
    </path>
  </symbol>
</svg>
