<?xml version="1.0" encoding="UTF-8" standalone="no"?>
<svg
   xmlns:svg="http://www.w3.org/2000/svg"
   xmlns="http://www.w3.org/2000/svg"
   x="0px"
   y="0px"
   width="20px"
   height="20px"   
  
  >  
   <g    
     id="gflat_inheritance" 
     >
    <path
       style="fill:white;stroke:#000000;stroke-width:1px;stroke-linecap:butt;stroke-linejoin:miter;stroke-opacity:1"
       d="M 20,10 0,2 0,18 z"       
        />
    <path
       style="fill:white;stroke:#000000;stroke-width:1px;stroke-linecap:butt;stroke-linejoin:miter;stroke-opacity:1"
       d="M 12,7 12,13 1,10 z"       
        />
  </g>
  <g
     id="gvertical_inheritance">
    <path
       style="fill:white;stroke:#000000;stroke-width:1px;stroke-linecap:butt;stroke-linejoin:miter;stroke-opacity:1"
       d="M 20,10 0,2 0,18 z"
       />  
  <path
     style="fill:none;stroke:#000000;stroke-width:1px;stroke-linecap:butt;stroke-linejoin:miter;stroke-opacity:1"
     d="m 0.2542373,7.6271186 14.1525427,0"
      />
  <path
     style="fill:none;stroke:#000000;stroke-width:1px;stroke-linecap:butt;stroke-linejoin:miter;stroke-opacity:1"
     d="M 0.08474577,12.288136 14.406779,12.20339"
     />
</g>

<g
     id="ghorizontal_inheritance">
    <path
       style="fill:white;stroke:#000000;stroke-width:1px;stroke-linecap:butt;stroke-linejoin:miter;stroke-opacity:1"
       d="M 20,10 0,2 0,18 z"
        />
   <path
     style="fill:none;stroke:#000000;stroke-width:1px;stroke-linecap:butt;stroke-linejoin:miter;stroke-opacity:1"
     d="m 2.7118644,3.220339 0,13.559322"
      />
  <path
     style="fill:none;stroke:#000000;stroke-width:1px;stroke-linecap:butt;stroke-linejoin:miter;stroke-opacity:1"
     d="M 5.5,4.3220339 5.5,16.016949"
     />
  <path
     style="fill:none;stroke:#000000;stroke-width:1px;stroke-linecap:butt;stroke-linejoin:miter;stroke-opacity:1"
     d="M 8.5,5.2542373 8.5,14.915254"
     />
  <path
     style="fill:none;stroke:#000000;stroke-width:1px;stroke-linecap:butt;stroke-linejoin:miter;stroke-opacity:1"
     d="m 11.779661,6.779661 -0.169492,6.694915"
    />
  <path
     style="fill:none;stroke:#000000;stroke-width:1px;stroke-linecap:butt;stroke-linejoin:miter;stroke-opacity:1"
     d="m 14.745763,8.0508475 -0.08475,4.0677965"
      />
  </g>
  <symbol id="open-iconic-x"  width="8" height="8" viewBox="0 0 8 8">
  	<path d="M1.41 0l-1.41 1.41.72.72 1.78 1.81-1.78 1.78-.72.69 1.41 1.44.72-.72 1.81-1.81 1.78 1.81.69.72 1.44-1.44-.72-.69-1.81-1.78 1.81-1.81.72-.72-1.44-1.41-.69.72-1.78 1.78-1.81-1.78-.72-.72z" />
  </symbol>
</svg>
